<?xml version="1.0" standalone="no"?><!DOCTYPE svg PUBLIC "-//W3C//DTD SVG 1.1//EN" "http://www.w3.org/Graphics/SVG/1.1/DTD/svg11.dtd"><svg t="1728652686485" class="icon" viewBox="0 0 1024 1024" version="1.1" xmlns="http://www.w3.org/2000/svg" p-id="12909" xmlns:xlink="http://www.w3.org/1999/xlink" width="64" height="64"><path d="M936 827.2h-848c-12.8 0-24 11.2-24 24s11.2 24 24 24h848c12.8 0 24-11.2 24-24s-11.2-24-24-24zM300.8 768c8 8 17.6 11.2 28.8 11.2h153.6c11.2 0 20.8-4.8 28.8-11.2l56-56 12.8 12.8c12.8 12.8 32 12.8 44.8 0l272-272c12.8-12.8 12.8-32 0-44.8L646.4 160c-12.8-12.8-32-12.8-44.8 0l-272 272c-12.8 12.8-12.8 32 0 44.8l12.8 12.8-126.4 126.4c-19.2 19.2-19.2 49.6 0 67.2l84.8 84.8zM624 204.8l225.6 225.6-248 249.6-227.2-225.6L624 204.8zM376 523.2l156.8 156.8-52.8 52.8h-147.2l-83.2-83.2 126.4-126.4z" fill="#ffffff" p-id="12910"></path></svg>