<?xml version="1.0" standalone="no"?><!DOCTYPE svg PUBLIC "-//W3C//DTD SVG 1.1//EN" "http://www.w3.org/Graphics/SVG/1.1/DTD/svg11.dtd"><svg t="1726482823043" class="icon" viewBox="0 0 1024 1024" version="1.1" xmlns="http://www.w3.org/2000/svg" p-id="6978" xmlns:xlink="http://www.w3.org/1999/xlink" width="64" height="64"><path d="M514.471724 770.471724h-4.413793V882.758621h4.413793a362.593103 362.593103 0 0 0 245.186207-95.028966l-79.713103-79.713103a250.438621 250.438621 0 0 1-165.473104 62.455172z" fill="#96ED5D" p-id="6979"></path><path d="M878.344828 523.29931h-112.551725a251.012414 251.012414 0 0 1-85.980689 184.982069l79.713103 79.713104A363.211034 363.211034 0 0 0 878.344828 523.29931z" fill="#FFF330" p-id="6980"></path><path d="M514.471724 154.747586h-4.413793v112.551724h4.413793A250.65931 250.65931 0 0 1 684.137931 333.108966l79.448276-79.448276a362.769655 362.769655 0 0 0-249.114483-98.913104z" fill="#F44040" p-id="6981"></path><path d="M766.057931 518.885517v4.413793H878.344828v-4.413793a363.034483 363.034483 0 0 0-114.758621-265.357241l-79.448276 79.448276a250.924138 250.924138 0 0 1 81.92 185.908965z" fill="#FFA539" p-id="6982"></path><path d="M263.017931 523.29931h-112.551724A362.681379 362.681379 0 0 0 249.158621 768l79.448276-79.448276a250.571034 250.571034 0 0 1-65.588966-165.252414z" fill="#036AFF" p-id="6983"></path><path d="M510.057931 882.758621v-112.551724A250.835862 250.835862 0 0 1 328.73931 688.551724l-79.448276 79.448276a362.946207 362.946207 0 0 0 260.766897 114.758621z" fill="#37D9F4" p-id="6984"></path><path d="M245.406897 273.655172a362.593103 362.593103 0 0 0-95.028966 245.186207v4.413793h112.551724v-4.413793a250.438621 250.438621 0 0 1 62.146207-165.428965z" fill="#784EF9" p-id="6985"></path><path d="M510.057931 267.431724v-112.551724A363.211034 363.211034 0 0 0 245.406897 273.655172l79.668965 79.757242a251.012414 251.012414 0 0 1 184.982069-85.98069z" fill="#F44AA7" p-id="6986"></path></svg>