<?xml version="1.0" standalone="no"?><!DOCTYPE svg PUBLIC "-//W3C//DTD SVG 1.1//EN" "http://www.w3.org/Graphics/SVG/1.1/DTD/svg11.dtd"><svg t="1727356229707" class="icon" viewBox="0 0 1024 1024" version="1.1" xmlns="http://www.w3.org/2000/svg" p-id="8059" xmlns:xlink="http://www.w3.org/1999/xlink" width="64" height="64"><path d="M512 0c282.766222 0 512 229.233778 512 512s-229.233778 512-512 512S0 794.766222 0 512 229.233778 0 512 0z m0 28.444444C244.935111 28.444444 28.444444 244.935111 28.444444 512s216.490667 483.555556 483.555556 483.555556 483.555556-216.490667 483.555556-483.555556S779.064889 28.444444 512 28.444444z" fill="#333333" p-id="8060"></path><path d="M547.896889 284.444444c-15.559111 0-30.264889 1.706667-47.587556 8.533334-35.470222 14.535111-52.764444 46.990222-52.764444 99.100444v50.432H398.222222V526.222222h49.322667V768h100.352v-241.777778h68.352L625.777778 442.510222h-77.880889v-37.603555c0-11.946667 0.853333-20.48 4.323555-24.775111 4.323556-7.68 12.999111-11.093333 26.823112-11.093334h45.880888V285.297778h-77.027555V284.444444z" fill="#333333" p-id="8061"></path></svg>