<?xml version="1.0" standalone="no"?><!DOCTYPE svg PUBLIC "-//W3C//DTD SVG 1.1//EN" "http://www.w3.org/Graphics/SVG/1.1/DTD/svg11.dtd"><svg t="1726483055908" class="icon" viewBox="0 0 1024 1024" version="1.1" xmlns="http://www.w3.org/2000/svg" p-id="31965" xmlns:xlink="http://www.w3.org/1999/xlink" width="64" height="64"><path d="M404.5 447H107c-22.6 0-41-18.4-41-41V107c0-22.6 18.4-41 41-41h297.5c22.6 0 41 18.4 41 41v299c0 22.6-18.3 41-41 41zM108 405h295.5V108H108v297zM404.5 958H107c-22.6 0-41-18.4-41-41V618c0-22.6 18.4-41 41-41h297.5c22.6 0 41 18.4 41 41v299c0 22.6-18.3 41-41 41zM108 916h295.5V619H108v297zM917 570.8H619.5c-22.6 0-41-18.4-41-41V107c0-22.6 18.4-41 41-41H917c22.6 0 41 18.4 41 41v422.8c0 22.6-18.4 41-41 41z m-296.5-42H916V108H620.5v420.8zM917 958H619.5c-22.6 0-41-18.4-41-41V753.3c0-22.6 18.4-41 41-41H917c22.6 0 41 18.4 41 41V917c0 22.6-18.4 41-41 41z m-296.5-42H916V754.3H620.5V916z" fill="#949494" p-id="31966"></path></svg>