<?xml version="1.0" standalone="no"?><!DOCTYPE svg PUBLIC "-//W3C//DTD SVG 1.1//EN" "http://www.w3.org/Graphics/SVG/1.1/DTD/svg11.dtd"><svg t="1727008129889" class="icon" viewBox="0 0 1024 1024" version="1.1" xmlns="http://www.w3.org/2000/svg" p-id="13376" xmlns:xlink="http://www.w3.org/1999/xlink" width="64" height="64"><path d="M704.14 255.59H128a64 64 0 0 0-64 64v576.14a64 64 0 0 0 64 64h576.14a64 64 0 0 0 64-64V319.59a64 64 0 0 0-64-64z m32 640.14a32 32 0 0 1-32 32H128a32 32 0 0 1-32-32V319.59a32 32 0 0 1 32-32h576.14a32 32 0 0 1 32 32zM80.09 192a16 16 0 0 0 16-16v-31.75h639.79V176a16 16 0 0 0 32 0V80.19a16 16 0 1 0-32 0v32.06H96.09V80.19a16 16 0 0 0-32 0V176a16 16 0 0 0 16 16zM944.12 927.78h-32V288h32a16 16 0 1 0 0-32h-95.83a16 16 0 0 0 0 32h31.78v639.78h-31.78a16 16 0 0 0 0 32h95.83a16 16 0 1 0 0-32z" p-id="13377" fill="#949494"></path></svg>